<?xml version="1.0" standalone="no"?>
<!DOCTYPE svg PUBLIC "-//W3C//DTD SVG 20010904//EN"
 "http://www.w3.org/TR/2001/REC-SVG-20010904/DTD/svg10.dtd">
<svg version="1.0" xmlns="http://www.w3.org/2000/svg"
 width="1024.000000pt" height="1024.000000pt" viewBox="0 0 1024.000000 1024.000000"
 preserveAspectRatio="xMidYMid meet">
<metadata>
Created by potrace 1.11, written by Peter Selinger 2001-2013
</metadata>
<g transform="translate(0.000000,1024.000000) scale(0.100000,-0.100000)"
fill="#000000" stroke="none">
<path d="M3717 9213 c-2 -1 -12 -4 -23 -6 -29 -6 -77 -18 -94 -24 -8 -3 -22
-7 -30 -8 -46 -6 -669 -226 -795 -280 -16 -7 -45 -18 -63 -25 -24 -9 -46 -33
-78 -82 l-45 -69 -2 -112 c-2 -101 2 -145 19 -212 3 -12 37 -48 76 -80 68 -56
72 -58 136 -60 37 -2 71 -3 76 -4 4 -1 5 -9 1 -18 -3 -10 -13 -52 -21 -93 -8
-41 -16 -86 -19 -100 -5 -24 -8 -41 -20 -100 -22 -116 -23 -125 -12 -132 24
-15 263 -100 310 -110 52 -11 63 -7 54 16 -7 19 -262 140 -262 125 0 -1 -11 3
-23 10 -17 9 -23 19 -19 34 2 12 18 81 35 154 17 72 33 142 36 155 2 13 9 45
16 72 12 56 16 50 -70 97 -30 16 -82 45 -115 63 l-60 34 -1 106 c-2 100 0 109
23 137 14 16 30 29 37 29 7 0 26 6 42 14 16 8 103 44 194 81 91 37 185 76 210
87 25 11 59 26 75 33 261 111 495 237 495 266 0 8 -75 10 -83 2z"/>
<path d="M3930 9130 c0 -20 27 -73 61 -122 17 -24 25 -54 44 -165 l5 -31 -133
-65 c-72 -36 -179 -79 -237 -97 -58 -17 -112 -34 -120 -36 -8 -3 -17 -6 -20
-6 -3 0 -16 -5 -30 -10 -14 -5 -32 -11 -40 -13 -33 -9 -91 -32 -100 -41 -5 -5
-11 -25 -13 -44 -3 -19 -6 -35 -7 -35 -1 0 -4 -14 -14 -75 -2 -14 -14 -81 -26
-150 -29 -166 -31 -191 -33 -289 -4 -181 46 -79 123 250 16 69 32 148 36 176
3 28 9 55 13 62 6 9 88 28 206 47 44 7 67 11 75 14 3 1 10 3 15 4 90 15 101
21 204 105 58 47 125 101 149 120 45 35 45 34 27 146 -3 17 -7 41 -9 55 -16
100 -29 119 -130 198 -35 27 -46 28 -46 2z"/>
<path d="M2900 7623 c-8 -2 -22 -7 -30 -10 -8 -3 -23 -8 -33 -9 -30 -6 -90
-38 -94 -51 -6 -16 25 -24 102 -24 93 -1 149 -26 229 -104 27 -27 31 -37 29
-80 -1 -28 -2 -50 -3 -50 -1 0 -3 -16 -4 -35 -2 -19 -17 -91 -35 -160 -18 -69
-35 -132 -36 -140 -2 -8 -4 -17 -5 -20 -1 -3 -3 -9 -5 -15 -1 -5 -3 -12 -4
-15 -1 -3 -4 -16 -7 -30 -2 -14 -13 -62 -24 -106 -12 -45 -22 -90 -24 -100 -2
-11 -9 -39 -16 -64 -7 -25 -14 -58 -17 -74 -3 -16 -9 -40 -14 -54 -5 -14 -7
-27 -5 -29 3 -3 0 -16 -5 -30 -5 -14 -12 -42 -15 -62 -3 -20 -9 -52 -14 -71
-5 -19 -11 -46 -14 -60 -2 -14 -18 -92 -35 -175 -16 -82 -32 -168 -36 -190 -3
-22 -8 -53 -11 -70 -11 -60 -14 -82 -20 -180 -6 -99 -6 -100 13 -80 11 11 31
52 45 90 27 71 70 202 74 220 1 6 18 66 38 135 32 108 161 599 172 654 7 38
36 162 49 211 7 28 16 68 21 90 4 22 8 42 9 45 2 7 28 122 31 135 18 90 22
125 19 150 -2 17 -6 50 -9 73 -3 24 -7 60 -8 80 -2 29 -14 48 -68 101 -58 58
-73 68 -132 84 -37 9 -73 19 -80 21 -7 3 -20 2 -28 -1z"/>
<path d="M2569 7168 c-6 -24 -14 -47 -17 -53 -4 -5 -7 -14 -9 -20 -1 -5 -9
-37 -19 -70 -9 -33 -18 -67 -20 -75 -2 -8 -13 -51 -24 -95 -12 -44 -22 -87
-24 -95 -2 -8 -9 -33 -14 -55 -6 -22 -13 -51 -16 -65 -3 -14 -10 -45 -17 -70
-6 -25 -13 -56 -15 -69 -3 -14 -19 -81 -36 -150 -16 -69 -31 -133 -33 -141 -2
-8 -11 -51 -20 -95 -9 -44 -23 -107 -31 -140 -8 -33 -17 -69 -19 -80 -3 -11
-32 -146 -65 -300 -50 -228 -95 -439 -115 -535 -2 -8 -4 -18 -4 -22 -1 -5 -47
-7 -103 -5 l-102 2 -8 -30 c-9 -32 -15 -58 -23 -102 -3 -16 -11 -46 -17 -68
-6 -22 -12 -47 -13 -55 -2 -8 -4 -15 -5 -15 -1 0 -3 -11 -5 -25 -2 -14 -11
-54 -20 -90 -17 -66 -21 -82 -30 -123 -2 -12 -8 -35 -11 -52 -4 -16 -8 -39
-10 -50 -1 -11 -5 -27 -9 -36 -5 -13 3 -18 37 -24 24 -4 56 -9 72 -12 16 -2
39 -9 51 -13 22 -8 22 -10 8 -67 -7 -32 -16 -66 -18 -76 -2 -10 -6 -26 -9 -35
-3 -9 -8 -31 -11 -49 -3 -18 -9 -43 -15 -57 -5 -15 -8 -26 -5 -26 2 0 -2 -18
-10 -41 -8 -22 -14 -43 -13 -47 1 -4 -4 -27 -11 -52 -7 -25 -15 -56 -18 -69
-2 -14 -13 -56 -23 -95 -18 -66 -26 -100 -35 -151 -2 -11 -8 -35 -14 -53 -5
-18 -10 -35 -10 -37 -1 -3 -1 -6 -2 -7 -1 -5 -7 -33 -13 -63 -3 -16 -18 -79
-34 -140 l-27 -110 -118 -27 c-112 -27 -123 -32 -250 -114 -72 -48 -135 -91
-139 -98 -4 -6 -12 -18 -17 -26 -39 -57 -91 -142 -91 -150 0 -4 -4 -10 -8 -12
-26 -10 -87 -153 -122 -283 -5 -16 -20 -68 -34 -115 -14 -47 -27 -101 -30
-120 -6 -33 -5 -34 10 -15 20 26 75 135 67 135 -3 0 -1 6 5 13 5 6 33 67 61
133 29 67 60 130 69 141 9 10 22 26 27 35 47 74 133 187 145 192 8 3 33 16 55
28 137 79 205 110 322 149 73 24 131 45 129 47 -2 2 2 27 10 55 7 29 16 67 19
85 3 18 21 101 41 185 19 84 37 163 39 177 5 30 10 53 23 105 5 22 10 47 10
55 1 8 10 51 21 96 11 44 22 91 25 105 2 13 9 44 15 69 5 25 12 56 15 70 2 14
12 58 20 97 9 40 18 87 22 105 3 18 7 38 8 43 1 6 4 15 7 20 3 6 5 21 5 34 -1
24 -3 25 -71 36 -86 14 -110 22 -106 36 2 8 10 37 18 64 8 28 16 59 18 70 3
11 21 74 40 140 20 66 38 127 40 135 14 64 15 64 121 65 l99 0 12 49 c7 28 15
61 17 75 3 15 15 67 26 116 12 50 23 101 26 115 3 13 14 63 25 110 25 101 30
128 32 158 1 12 5 22 10 22 4 0 6 3 5 8 -2 6 4 38 18 102 3 14 7 36 10 50 3
14 10 45 15 70 6 25 13 54 15 65 2 11 6 31 9 45 4 14 8 36 11 50 3 14 11 53
19 88 8 34 17 77 20 95 3 17 10 48 15 67 5 19 11 51 14 70 3 19 19 100 36 180
40 186 37 171 44 216 4 22 8 46 11 54 2 8 6 31 9 50 3 19 8 45 10 56 2 12 7
37 10 55 3 19 8 45 11 59 2 13 7 40 10 60 3 20 8 47 10 60 11 57 14 140 5 140
-5 0 -14 -19 -21 -42z"/>
<path d="M2697 5342 c-21 -52 -45 -138 -49 -174 -1 -10 -5 -18 -8 -18 -3 0 -5
-10 -6 -22 -1 -13 -13 -77 -28 -143 -15 -66 -28 -135 -29 -154 -2 -32 1 -36
33 -43 78 -19 100 -28 100 -41 0 -7 -4 -28 -10 -47 -5 -19 -11 -46 -14 -60 -9
-44 -16 -74 -31 -135 -9 -33 -17 -72 -20 -86 -7 -49 -34 -142 -42 -149 -4 -4
-39 -15 -78 -24 -38 -9 -83 -22 -98 -28 -27 -10 -27 -11 -10 -37 9 -14 22 -35
28 -46 5 -11 19 -33 29 -50 48 -75 66 -105 106 -175 24 -41 49 -82 55 -90 7
-8 23 -35 36 -60 13 -25 27 -47 30 -50 3 -3 9 -12 12 -20 4 -8 15 -28 26 -45
126 -205 241 -399 241 -406 0 -5 5 -9 10 -9 6 0 10 -5 10 -10 0 -6 23 -47 51
-92 28 -44 59 -95 69 -112 24 -42 235 -389 275 -451 17 -27 46 -75 65 -105 18
-30 53 -85 77 -122 24 -37 43 -70 43 -73 0 -4 13 -26 30 -50 l30 -43 427 3
c472 4 646 11 798 30 11 1 28 3 38 4 9 0 17 8 17 17 0 10 -6 14 -14 11 -8 -3
-17 -3 -20 1 -7 6 -16 8 -86 16 -45 6 -118 11 -280 21 -154 10 -522 21 -758
24 l-72 1 -47 73 c-25 39 -76 117 -112 172 -36 55 -68 105 -70 110 -2 6 -30
49 -63 97 -32 48 -58 92 -58 98 0 5 -4 10 -8 10 -4 0 -23 26 -42 58 -19 31
-37 59 -40 62 -3 3 -30 43 -60 90 -45 71 -385 588 -549 835 -25 39 -49 72 -53
73 -5 2 -8 8 -8 14 0 5 -13 28 -29 51 -16 23 -43 64 -61 90 l-32 48 105 -3
c58 -1 108 0 112 4 3 3 8 21 11 39 6 43 5 37 43 264 18 105 34 201 37 215 15
81 16 110 3 111 -8 0 -41 6 -74 13 -66 14 -69 19 -48 79 6 20 10 37 8 37 -2 0
1 15 6 33 5 17 11 43 14 57 2 14 14 69 25 124 21 104 36 226 27 226 -3 0 -12
-17 -20 -38z"/>
<path d="M7910 3602 c-47 -15 -89 -30 -95 -33 -5 -4 -28 -12 -50 -19 -22 -6
-59 -20 -82 -31 -24 -10 -47 -19 -51 -19 -5 0 -28 -14 -52 -31 -30 -22 -39
-34 -32 -41 18 -18 175 -13 287 8 10 2 37 6 60 9 22 3 47 8 55 10 48 13 86 13
142 0 35 -8 81 -17 103 -19 22 -3 51 -8 65 -12 14 -3 41 -9 60 -14 19 -5 44
-10 55 -13 116 -28 176 -36 202 -26 15 6 29 10 31 10 1 -1 3 -1 5 0 19 6 45 3
40 -5 -4 -6 -16 -27 -28 -46 -71 -116 -132 -255 -116 -265 19 -11 41 10 82 78
24 40 64 119 91 176 l47 105 -42 25 c-23 13 -43 28 -45 33 -2 4 -8 8 -14 8 -5
0 -22 9 -36 19 -15 10 -31 19 -37 20 -5 1 -28 7 -50 13 -22 6 -46 13 -54 14
-8 2 -49 12 -92 24 -76 20 -115 27 -209 35 -25 2 -45 5 -45 6 0 0 -25 2 -55 4
-40 3 -79 -4 -140 -23z"/>
<path d="M2225 3311 c-9 -27 -35 -105 -59 -174 -32 -94 -40 -130 -33 -144 6
-10 71 -110 145 -222 74 -113 158 -252 185 -310 28 -58 51 -108 52 -111 0 -3
15 -36 33 -73 l32 -68 0 -167 c0 -146 -3 -178 -24 -254 -14 -48 -27 -91 -30
-96 -3 -5 -7 -19 -10 -33 -2 -13 -13 -56 -24 -94 -19 -67 -24 -75 -126 -178
-116 -117 -136 -152 -63 -116 23 12 44 25 47 28 3 4 26 21 52 38 94 63 136 98
141 118 3 11 36 102 75 203 l71 183 6 204 c6 195 5 206 -15 252 -12 26 -23 53
-24 58 -6 24 -40 103 -61 145 -7 14 -14 28 -14 32 -12 75 -182 352 -281 458
l-51 55 5 90 c2 49 5 104 5 120 l1 30 20 -25 c11 -14 20 -29 20 -33 0 -4 5
-13 11 -20 6 -7 68 -102 138 -212 479 -754 772 -1161 771 -1072 -1 31 -133
252 -270 449 -33 48 -60 90 -60 93 0 3 -5 11 -11 18 -5 7 -55 77 -111 157
-130 187 -370 524 -377 530 -3 3 -10 12 -16 21 -31 50 -120 169 -126 169 -4 0
-15 -22 -24 -49z"/>
<path d="M7239 3307 c-63 -44 -168 -128 -188 -151 -9 -10 -29 -32 -46 -50 -16
-18 -48 -54 -70 -81 -21 -28 -42 -52 -45 -55 -32 -30 -132 -165 -135 -182 -3
-13 -7 -34 -10 -48 -10 -50 -17 -95 -18 -107 0 -7 -4 -13 -9 -13 -5 0 -6 -5
-3 -10 4 -6 1 -34 -4 -63 -13 -61 -17 -81 -26 -133 -11 -61 -13 -76 -21 -124
-6 -43 -22 -67 -34 -52 -3 4 -41 8 -85 8 -44 1 -132 4 -195 7 -565 30 -1152
28 -1211 -3 -70 -38 116 -69 561 -95 252 -15 750 -28 976 -25 57 0 51 -7 70
90 2 9 10 45 19 80 9 36 18 76 21 90 3 14 7 33 10 42 3 9 6 25 8 35 3 10 13
56 24 103 12 47 24 101 27 120 7 35 83 160 97 160 5 0 8 6 8 14 0 8 4 16 8 18
4 2 23 25 42 53 19 27 41 56 48 63 6 7 12 16 12 20 0 4 10 19 23 34 12 14 36
43 54 65 18 21 44 52 59 68 14 17 38 46 53 65 14 19 29 37 32 40 3 3 11 15 18
28 10 19 9 22 -6 22 -10 -1 -39 -15 -64 -33z"/>
<path d="M8197 2974 c-1 -1 -39 -4 -83 -7 -45 -2 -86 -6 -90 -9 -5 -2 -25 -5
-44 -7 -19 -1 -41 -9 -49 -16 -18 -18 5 -30 87 -45 62 -11 73 -12 182 -25 30
-3 68 -8 85 -11 33 -6 145 -64 145 -76 0 -5 5 -8 11 -8 15 0 167 -118 204
-159 42 -45 101 -109 173 -185 l56 -58 0 -222 c0 -121 -3 -243 -8 -271 -4 -27
-9 -61 -11 -75 -17 -140 -40 -205 -213 -614 -13 -29 -37 -52 -102 -96 -108
-75 -170 -128 -170 -146 0 -24 61 -4 222 74 112 54 82 13 261 362 80 156 107
220 116 270 6 36 13 76 16 90 3 14 8 43 11 65 7 47 10 66 20 120 8 47 8 34 -1
165 -4 58 -8 146 -10 195 -3 50 -5 90 -6 90 0 0 -2 14 -4 30 -1 17 -3 32 -4
35 0 3 -20 26 -43 51 -24 25 -60 66 -82 90 -163 186 -248 259 -376 324 -19 10
-38 22 -41 27 -3 5 -8 9 -10 8 -2 -1 -22 6 -44 15 -33 15 -187 29 -198 19z"/>
<path d="M7728 2925 c-2 -2 -16 -6 -31 -9 -15 -2 -64 -21 -110 -41 -45 -20
-88 -37 -94 -38 -7 0 -13 -4 -13 -9 0 -4 -7 -8 -15 -8 -18 0 -213 -243 -227
-282 -6 -16 -14 -28 -19 -28 -5 0 -8 -3 -7 -7 1 -5 -5 -24 -14 -43 -9 -19 -27
-60 -41 -91 -22 -49 -33 -98 -36 -160 -1 -9 -10 -19 -21 -22 -20 -5 -37 -33
-27 -43 13 -13 73 -20 83 -10 5 6 51 76 101 156 96 152 233 348 269 384 11 12
46 39 78 61 81 56 145 115 163 148 8 16 13 31 10 33 -6 6 -44 13 -49 9z"/>
<path d="M7908 2408 c-20 -23 -46 -54 -58 -68 -41 -47 -80 -109 -80 -128 0
-19 50 -47 120 -67 40 -12 168 -74 175 -85 3 -5 24 -10 46 -10 34 0 39 -3 35
-17 -3 -10 -8 -36 -12 -58 -6 -34 -41 -143 -49 -153 -2 -2 -32 -5 -67 -7 -34
-3 -94 -7 -132 -10 -39 -4 -94 -8 -124 -10 -30 -2 -56 -6 -59 -8 -14 -15 -21
-146 -7 -155 5 -4 31 -36 56 -71 52 -70 58 -75 140 -119 136 -74 193 -70 313
21 86 64 104 85 180 198 l67 100 2 137 3 136 -66 130 -66 129 -100 66 c-112
74 -123 78 -215 87 l-66 6 -36 -44z m188 -103 c86 -56 152 -119 172 -163 66
-146 67 -152 62 -244 -5 -85 -6 -87 -50 -140 -77 -92 -139 -146 -200 -178
l-36 -18 -78 34 c-50 22 -91 48 -112 72 -19 20 -34 40 -34 44 0 3 73 4 163 1
l162 -5 24 54 c13 29 28 59 34 67 16 20 20 40 20 106 1 63 -9 174 -15 179 -9
9 -106 49 -176 74 -57 20 -96 27 -148 27 -76 0 -82 7 -37 40 14 11 48 41 76
67 l49 46 48 -22 c26 -12 61 -31 76 -41z"/>
<path d="M1489 2368 c-49 -54 -179 -251 -179 -273 0 -11 7 -41 15 -67 8 -27
11 -48 8 -48 -3 0 1 -8 8 -17 12 -14 12 -16 0 -8 -11 6 -12 5 -5 -6 5 -8 9
-17 10 -21 1 -5 2 -9 3 -10 2 -2 4 -16 6 -31 4 -33 85 -193 132 -263 5 -6 40
-14 78 -18 39 -4 86 -9 105 -12 38 -5 103 -5 165 1 22 2 52 4 67 4 20 1 53 26
131 101 57 55 104 105 104 112 1 7 4 40 7 73 25 247 26 225 -18 318 -20 42
-36 82 -36 87 0 26 -35 2 -131 -90 -32 -31 -38 -46 -49 -109 -12 -72 -12 -72
-63 -104 -29 -17 -63 -33 -77 -35 -14 -1 -37 -7 -52 -12 -21 -7 -35 -3 -72 20
-39 25 -47 37 -62 87 -21 72 -45 123 -57 123 -12 0 -2 -149 14 -204 6 -22 24
-50 42 -65 17 -14 41 -37 53 -50 20 -22 29 -24 101 -22 86 2 123 9 123 22 0 5
4 9 9 9 5 0 33 16 64 36 46 30 57 42 67 80 19 68 26 60 19 -26 -5 -71 -8 -81
-35 -103 -16 -14 -44 -39 -63 -56 -18 -16 -36 -30 -40 -29 -3 0 -8 0 -11 -2
-3 -1 -41 -3 -85 -4 -44 -2 -116 -6 -160 -10 l-80 -7 -17 38 c-9 21 -44 100
-77 176 l-61 138 24 42 c72 124 132 267 112 267 -4 0 -21 -15 -37 -32z m564
-208 c-3 -11 -9 -17 -15 -14 -5 3 -4 12 3 20 16 19 18 18 12 -6z m-11 -55 c-2
-14 -8 -28 -13 -31 -5 -3 -7 5 -5 18 3 13 5 26 5 31 1 4 5 7 10 7 4 0 6 -11 3
-25z"/>
<path d="M869 1838 c-2 -21 3 -80 7 -100 2 -10 6 -28 9 -40 31 -151 58 -214
167 -400 31 -52 51 -74 94 -99 30 -18 54 -37 54 -41 0 -4 5 -8 11 -8 5 0 37
-18 71 -41 33 -23 77 -45 97 -51 20 -5 43 -12 51 -15 8 -3 22 -7 30 -8 8 -2
24 -5 35 -8 221 -55 246 -59 288 -48 126 36 124 35 152 45 11 5 34 12 50 18
70 23 156 72 153 88 -3 12 -21 15 -108 15 -95 0 -143 -4 -244 -21 -21 -3 -59
3 -102 18 -38 12 -72 21 -76 20 -5 -1 -8 3 -8 9 0 5 -4 7 -10 4 -5 -3 -19 -1
-30 5 -12 6 -31 13 -42 15 -60 12 -134 44 -233 102 l-110 65 -81 121 c-44 67
-88 138 -96 157 -9 19 -26 57 -38 85 -43 96 -88 151 -91 113z"/>
<path d="M3737 1843 c-1 -1 -49 -4 -107 -8 -156 -9 -247 -21 -255 -35 -10 -16
32 -34 110 -46 11 -2 34 -5 50 -7 52 -8 139 -19 175 -22 19 -2 60 -6 90 -9 30
-4 80 -9 110 -11 30 -2 91 -6 135 -9 150 -12 220 -16 330 -22 61 -3 144 -7
185 -9 479 -26 1435 -25 1615 1 51 8 85 21 85 33 0 8 -75 30 -130 38 -27 3
-61 8 -130 18 -25 3 -67 8 -95 10 -27 2 -77 7 -110 10 -80 7 -174 14 -265 20
-41 3 -104 7 -140 10 -176 12 -437 24 -690 31 -183 6 -959 11 -963 7z"/>
<path d="M6755 1762 c-1 -1 -36 -5 -76 -7 -417 -25 -288 -98 231 -131 52 -3
115 -7 140 -8 25 -2 52 -6 61 -10 15 -7 43 -64 85 -176 9 -25 21 -49 26 -55 4
-5 8 -15 8 -22 0 -7 29 -62 65 -122 61 -103 71 -114 175 -198 61 -48 125 -92
143 -97 17 -6 34 -12 37 -15 12 -14 180 -61 235 -66 110 -11 300 -14 314 -6
41 26 -48 65 -298 132 -86 23 -265 107 -301 141 -14 13 -52 47 -85 75 -38 32
-72 74 -91 110 -17 32 -43 78 -56 103 -14 25 -26 48 -27 53 0 4 -17 42 -37 85
-19 42 -42 93 -50 113 -9 21 -34 50 -62 70 l-47 34 -193 0 c-107 0 -195 -1
-197 -3z"/>
<path d="M3963 1412 c-18 -3 -21 -10 -21 -50 0 -26 -1 -49 -2 -52 0 -3 -3 -86
-6 -185 -2 -99 -6 -214 -8 -255 -2 -41 -2 -79 0 -85 4 -11 69 -13 79 -3 3 3 8
57 10 119 2 63 6 202 10 310 l7 196 -24 4 c-12 3 -33 3 -45 1z"/>
<path d="M5917 1410 c-7 -3 -12 -25 -12 -55 l0 -50 43 -3 c45 -3 44 -5 44 63
0 17 0 35 -1 41 -1 12 -49 14 -74 4z"/>
<path d="M6999 1406 c-4 -34 -18 -393 -22 -551 l-2 -70 43 -3 c35 -3 42 0 43
15 0 10 2 47 4 83 2 36 6 161 9 279 4 118 9 217 11 221 2 3 0 12 -5 20 -11 17
-79 22 -81 6z"/>
<path d="M3169 1348 c0 -35 -3 -124 -6 -198 -3 -74 -6 -189 -7 -254 l-1 -119
32 -2 c18 -1 37 1 43 5 5 3 12 70 14 154 4 118 9 154 23 178 10 17 23 31 28
30 6 0 15 4 22 9 8 7 18 3 33 -13 20 -22 21 -30 17 -190 -2 -93 -1 -168 2
-169 43 -8 74 -3 80 13 7 19 7 354 0 378 -15 50 -60 81 -108 75 -19 -3 -37 -8
-40 -12 -3 -5 -16 -16 -27 -26 l-21 -18 2 111 3 110 -44 0 -44 0 -1 -62z"/>
<path d="M4195 1241 c-40 -12 -72 -42 -85 -81 -7 -22 -11 -43 -8 -45 3 -3 21
-8 40 -11 29 -5 35 -2 45 19 24 51 103 35 103 -22 0 -21 -38 -45 -87 -54 -40
-8 -72 -27 -96 -58 -21 -27 -25 -42 -23 -88 2 -31 8 -68 14 -84 22 -53 103
-64 158 -22 l33 25 3 -22 c3 -22 11 -24 71 -19 9 1 12 47 11 196 -1 208 -6
229 -56 257 -25 13 -91 18 -123 9z m90 -284 c-5 -49 -9 -60 -25 -78 -38 -42
-90 -25 -90 29 0 36 9 47 50 65 57 25 68 22 65 -16z"/>
<path d="M4522 1239 c-22 -8 -71 -65 -74 -85 -6 -59 -3 -103 10 -126 16 -27
100 -78 130 -78 63 -2 69 -84 7 -90 -42 -5 -54 1 -73 34 -20 33 -22 34 -56 24
-45 -14 -49 -26 -23 -73 51 -90 181 -105 248 -29 25 29 41 90 36 135 -5 48
-34 81 -90 103 -70 29 -110 50 -114 61 -6 20 16 39 51 41 30 3 40 -2 58 -26
17 -23 25 -27 39 -20 10 6 27 10 38 10 18 0 19 3 9 33 -17 50 -37 74 -66 83
-35 10 -106 12 -130 3z"/>
<path d="M4905 1243 c-43 -11 -94 -79 -112 -148 -9 -38 -9 -172 0 -205 31
-113 131 -156 222 -96 26 17 71 94 61 104 -4 3 -22 11 -42 18 -31 11 -36 10
-41 -4 -19 -53 -72 -69 -98 -29 -22 35 -31 87 -14 88 8 0 58 0 112 0 l99 -1
-5 73 c-9 151 -77 225 -182 200z m85 -128 c29 -54 20 -67 -45 -69 -69 -3 -79
9 -55 62 18 39 22 43 52 40 23 -2 36 -11 48 -33z"/>
<path d="M5271 1219 c-26 -28 -30 -30 -26 -11 4 23 -18 34 -62 30 -22 -2 -23
-7 -24 -78 -1 -72 -3 -143 -9 -296 -2 -39 0 -75 3 -80 3 -5 23 -8 44 -6 l39 4
1 46 c3 133 13 251 23 274 14 29 47 43 66 27 9 -7 16 -5 23 9 6 11 7 22 4 26
-3 3 -1 6 6 6 7 0 10 4 7 8 -2 4 -1 14 5 22 6 11 9 8 10 -12 1 -16 2 -31 3
-35 3 -11 15 -74 21 -103 4 -23 18 -90 30 -150 7 -33 17 -92 18 -107 0 -13 14
-17 57 -13 32 2 38 8 45 47 3 18 12 61 20 96 15 66 22 101 25 127 3 21 21 -50
21 -77 0 -12 4 -25 9 -28 6 -4 8 -10 5 -15 -3 -5 0 -41 6 -79 10 -61 15 -71
33 -72 25 -2 60 2 64 6 2 2 30 105 62 229 l58 226 -43 0 c-45 0 -46 -2 -60
-70 -2 -8 -8 -35 -15 -60 -15 -56 -15 -55 -25 -115 -9 -57 -18 -44 -29 42 -3
28 -8 57 -10 65 -3 7 -8 37 -11 66 -3 30 -8 58 -11 63 -3 5 -22 9 -44 9 l-38
0 -17 -77 c-10 -43 -18 -82 -19 -88 -14 -66 -28 -126 -31 -123 -1 2 -5 21 -9
43 -3 22 -8 52 -11 68 -12 66 -16 84 -20 121 -8 54 -11 57 -63 56 -26 0 -59 2
-74 6 -22 5 -33 0 -57 -27z"/>
<path d="M6121 1229 c-54 -33 -75 -97 -58 -181 6 -31 39 -57 108 -84 83 -33
92 -42 76 -74 -10 -20 -22 -26 -53 -28 -38 -3 -42 -1 -58 32 -12 26 -21 34
-37 31 -63 -12 -70 -24 -45 -73 29 -56 63 -77 127 -79 40 -1 70 4 90 15 55 31
87 138 61 204 -12 29 -72 67 -139 88 -43 13 -59 34 -47 64 13 33 104 13 104
-23 0 -14 19 -14 58 0 22 7 30 16 27 29 -6 31 -36 70 -67 86 -36 19 -110 15
-147 -7z"/>
<path d="M6715 1217 c-20 -20 -35 -30 -34 -24 5 40 -1 47 -41 47 l-40 0 -1
-47 c0 -27 -3 -122 -6 -213 -3 -91 -6 -212 -7 -270 l-1 -105 39 0 c45 0 45 -1
47 122 1 45 6 88 10 95 7 10 9 9 9 -4 0 -20 48 -48 80 -48 84 0 141 104 141
259 1 135 -38 207 -120 218 -36 5 -44 2 -76 -30z m71 -75 c41 -27 51 -160 18
-228 -17 -34 -23 -39 -54 -39 -29 0 -37 5 -49 30 -17 35 -23 133 -10 177 16
56 60 84 95 60z"/>
<path d="M3548 1194 c-9 -118 -2 -350 11 -376 15 -29 65 -58 90 -53 38 8 71
26 83 45 17 26 28 26 21 -1 -7 -25 11 -39 46 -34 14 2 29 4 32 4 3 1 5 19 4
41 -1 23 2 43 7 46 4 3 5 11 1 17 -10 16 -10 46 -1 75 4 12 3 22 -2 22 -5 0
-6 10 -2 23 4 12 7 69 7 127 l0 105 -37 2 c-20 2 -39 -1 -42 -5 -3 -5 -8 -71
-11 -148 -3 -76 -10 -154 -16 -172 -16 -50 -62 -67 -94 -36 -14 15 -16 40 -13
188 l3 171 -42 1 -41 0 -4 -42z"/>
<path d="M5903 1226 c3 -8 4 -16 1 -19 -3 -2 -7 -100 -10 -216 l-5 -212 43 3
c49 4 43 -28 52 266 l6 192 -46 0 c-35 0 -45 -3 -41 -14z"/>
<path d="M2702 1209 c-44 -9 -98 -69 -116 -128 -9 -28 -13 -80 -11 -136 3
-109 2 -103 34 -151 65 -96 198 -75 246 39 l15 36 -40 11 c-40 11 -65 6 -55
-10 9 -14 -44 -49 -66 -43 -23 6 -49 51 -49 86 0 23 1 24 108 24 l107 -1 -1
60 c-3 104 -23 158 -71 192 -36 25 -60 30 -101 21z m62 -108 c10 -11 19 -35
19 -53 l2 -33 -62 -1 -63 -1 5 30 c12 67 64 97 99 58z"/>
<path d="M2945 1056 c-2 -6 -5 -32 -8 -58 -5 -56 -3 -57 98 -55 l70 2 3 61 3
61 -81 0 c-51 0 -83 -4 -85 -11z"/>
<path d="M6424 898 c-4 -6 -8 -35 -10 -64 l-2 -54 44 0 c35 0 44 4 45 18 0 9
2 34 4 55 1 22 -2 40 -9 43 -30 10 -66 11 -72 2z"/>
</g>
</svg>
