<?xml version="1.0" encoding="UTF-8" standalone="no"?><!DOCTYPE svg PUBLIC "-//W3C//DTD SVG 1.1//EN" "http://www.w3.org/Graphics/SVG/1.1/DTD/svg11.dtd"><svg width="100%" height="100%" viewBox="0 0 195 75" version="1.1" xmlns="http://www.w3.org/2000/svg" xmlns:xlink="http://www.w3.org/1999/xlink" xml:space="preserve" xmlns:serif="http://www.serif.com/" style="fill-rule:evenodd;clip-rule:evenodd;stroke-linejoin:round;stroke-miterlimit:2;"><rect id="Artboard3" x="0" y="0" width="195" height="72" style="fill:none;"/><path d="M39.898,7.056c0.087,0.326 -3.294,1.911 -7.617,3.608c-0.096,0.132 -0.191,0.265 -0.289,0.397c0.002,0.05 0.004,0.098 0.007,0.146c0.011,0.267 0.022,0.527 0.032,0.787c-0.019,0.187 -0.035,0.365 -0.051,0.55c0.21,0.116 0.418,0.233 0.623,0.349c0.45,0.258 0.878,0.5 1.293,0.732c-0.273,1.243 -0.529,2.363 -0.757,3.322c1.439,0.485 2.381,0.975 2.331,1.158c-0.048,0.182 -1.072,-0.089 -2.81,-0.84c0.176,-0.916 0.39,-2.002 0.641,-3.218c-0.356,-0.016 -0.718,-0.023 -1.095,-0.03c-0.333,-0.278 -0.673,-0.565 -1.02,-0.862c-0.068,-0.36 -0.139,-0.728 -0.209,-1.099c0.02,-0.392 0.041,-0.792 0.063,-1.193c0.005,-0.073 0.007,-0.146 0.012,-0.221c0.221,-0.334 0.44,-0.664 0.657,-0.988c4.544,-1.784 8.1,-2.925 8.189,-2.598Z"/><path d="M36.043,16.944c-0.244,-0.069 0.006,-2.094 0.611,-5.039c0.616,-0.205 1.303,-0.431 2.01,-0.65c0.365,-0.114 0.725,-0.221 1.074,-0.324c0.602,-0.306 1.41,-0.702 1.916,-0.953c-0.093,-0.411 -0.162,-0.801 -0.21,-1.173c-0.46,-0.657 -0.718,-1.152 -0.631,-1.259c0.088,-0.107 0.506,0.205 1.181,0.899c0.098,0.506 0.196,1.136 0.297,1.891c-0.598,0.488 -1.397,1.136 -2.195,1.768c-0.317,0.066 -0.643,0.132 -0.979,0.195c-0.642,0.126 -1.284,0.238 -1.872,0.336c-0.452,2.5 -0.956,4.38 -1.202,4.309Z"/><path d="M32.129,19.202c-0.017,-0.135 0.451,-0.328 1.32,-0.554c0.329,0.082 0.719,0.192 1.163,0.324c0.279,0.269 0.58,0.57 0.906,0.901c0.06,0.52 0.123,1.092 0.187,1.695c-0.235,1.124 -0.513,2.374 -0.823,3.686c-1.17,4.938 -2.336,8.839 -2.621,8.741c-0.283,-0.098 0.433,-4.12 1.585,-8.945c0.31,-1.288 0.619,-2.51 0.912,-3.61c0.019,-0.44 0.03,-0.705 0.046,-1.127c-0.189,-0.18 -0.372,-0.36 -0.547,-0.541c-0.31,-0.148 -0.6,-0.292 -0.858,-0.426c-0.769,0.034 -1.257,-0.012 -1.27,-0.144Z"/><path d="M31.966,35.044c0.128,0.041 -0.123,1.583 -0.709,3.946c0.356,0.075 0.732,0.153 1.129,0.238c0.016,-0.083 -0.718,4.269 -0.771,4.591c-0.517,-0.002 -1.049,-0.011 -1.603,-0.025c1.163,1.763 2.993,4.526 4.38,6.631c1.685,2.566 3.209,4.902 4.605,7.094c5.312,0.075 9.046,0.294 9.044,0.557c0,0.262 -3.777,0.401 -9.425,0.36c-1.433,-2.297 -2.982,-4.836 -4.679,-7.639c-1.439,-2.379 -3.17,-5.261 -4.357,-7.229c0.532,-0.15 1.045,-0.29 1.547,-0.419c0.31,-1.326 0.575,-2.459 0.835,-3.591c-0.381,-0.1 -0.741,-0.194 -1.079,-0.283c0.539,-2.765 0.958,-4.27 1.083,-4.231Z"/><path d="M49.522,57.993c0.008,-0.406 4.48,-0.392 9.867,-0.089c0.452,0.026 0.896,0.051 1.332,0.078c0.261,-1.528 0.509,-2.913 0.76,-4.186c0.828,-1.022 1.553,-1.888 2.149,-2.568c1.131,-0.94 1.833,-1.433 1.909,-1.314c0.077,0.116 -0.484,0.824 -1.467,1.896c-0.495,0.713 -1.106,1.56 -1.811,2.502c-0.299,1.364 -0.648,2.844 -1.042,4.46c-0.454,-0.003 -0.92,-0.007 -1.392,-0.014c-5.751,-0.069 -10.315,-0.363 -10.305,-0.765Z"/><path d="M67.213,49.248c-0.046,-0.267 1.348,-0.846 3.412,-1.446c0.603,0.059 1.262,0.137 1.948,0.233c0.055,0.013 0.11,0.027 0.165,0.04c0.696,0.169 1.359,0.347 1.966,0.525c0.415,0.27 0.791,0.509 1.145,0.726c-0.775,1.827 -1.387,2.807 -1.567,2.671c-0.182,-0.142 0.274,-1.186 1.1,-2.434c-0.284,0.052 -0.573,0.123 -0.879,0.207c-0.604,-0.118 -1.259,-0.264 -1.941,-0.431c-0.052,-0.013 -0.107,-0.027 -0.16,-0.041c-0.611,-0.1 -1.195,-0.208 -1.738,-0.322c-1.955,0.406 -3.405,0.539 -3.451,0.272Z"/><path d="M68.908,53.044c0.098,0.251 -0.703,0.969 -1.855,1.717c-0.23,0.342 -0.483,0.698 -0.755,1.061c-0.148,0.199 -0.299,0.392 -0.445,0.575c-0.318,0.568 -0.631,1.074 -0.912,1.485c-0.26,0.392 -0.479,0.711 -0.627,0.915c-0.408,-0.021 -0.577,-0.122 -0.575,-0.238c0.002,-0.116 0.167,-0.212 0.347,-0.217c0.05,-0.294 0.091,-0.572 0.141,-0.946c0.206,-0.511 0.482,-1.113 0.803,-1.763c0.162,-0.219 0.333,-0.445 0.511,-0.676c0.319,-0.413 0.634,-0.8 0.931,-1.147c1.35,-0.698 2.336,-1.017 2.436,-0.766Z"/><path d="M69.925,52.95c0.003,-0.176 1.063,-0.31 2.776,-0.385c0.158,0 0.29,0.029 0.402,0.066c0.146,0.045 0.287,0.103 0.424,0.164c0.306,0.139 0.602,0.304 0.91,0.488c0.351,0.231 0.721,0.475 1.104,0.732c0.702,0.765 1.455,1.599 2.245,2.496c0.034,0.488 0.066,0.988 0.098,1.492c0.041,0.672 0.08,1.331 0.116,1.975c-0.162,0.956 -0.322,1.873 -0.474,2.731c-0.746,1.5 -1.417,2.812 -1.951,3.809c-1.448,0.752 -2.313,1.097 -2.372,0.949c-0.059,-0.149 0.696,-0.744 1.916,-1.536c0.399,-1.015 0.915,-2.265 1.496,-3.624c0.106,-0.769 0.222,-1.579 0.347,-2.416c-0.015,-0.534 -0.027,-1.079 -0.036,-1.637c-0.007,-0.418 -0.014,-0.833 -0.019,-1.239c-0.689,-0.719 -1.329,-1.403 -1.931,-2.062c-0.34,-0.251 -0.667,-0.493 -0.977,-0.728c-0.28,-0.198 -0.533,-0.371 -0.791,-0.52c-0.117,-0.068 -0.224,-0.125 -0.329,-0.171c-0.089,-0.037 -0.148,-0.064 -0.191,-0.068c-1.711,-0.155 -2.765,-0.34 -2.763,-0.516Z"/><path d="M72.085,68.028c-0.025,0.205 -1.206,0.173 -3.047,-0.048c-0.484,-0.174 -1.018,-0.372 -1.585,-0.593c-0.506,-0.397 -1.045,-0.83 -1.606,-1.289c-0.258,-0.436 -0.523,-0.89 -0.792,-1.353c-0.034,-0.061 -0.071,-0.125 -0.107,-0.187c-0.251,-0.625 -0.49,-1.236 -0.716,-1.824c-0.076,-0.067 -0.153,-0.138 -0.229,-0.206c-2.839,-0.118 -4.94,-0.388 -4.936,-0.675c0.005,-0.285 2.149,-0.454 5.222,-0.436c0.221,0.169 0.449,0.34 0.682,0.518c0.287,0.625 0.586,1.289 0.887,1.971c0.03,0.052 0.06,0.105 0.089,0.16c0.215,0.39 0.424,0.775 0.63,1.154c0.458,0.388 0.896,0.764 1.311,1.129c0.482,0.221 0.935,0.44 1.35,0.647c1.744,0.432 2.872,0.824 2.847,1.032Z"/><path d="M57.868,61.943c0.013,-0.354 -4.716,-0.804 -10.553,-1.005c-5.837,-0.201 -10.586,-0.077 -10.598,0.277c-0.012,0.354 4.717,0.804 10.554,1.005c5.837,0.201 10.585,0.077 10.597,-0.277Z"/><path d="M35.628,60.368c-0.269,0.267 -3.299,-4.22 -6.989,-10.091c-0.035,0.593 -0.062,1.133 -0.094,1.745c0,0.018 -0.002,0.038 -0.002,0.057c0.289,0.308 0.572,0.611 0.853,0.914c0.413,0.635 0.812,1.257 1.2,1.864c0.447,1.072 0.871,2.099 1.264,3.057c-0.028,1.051 -0.06,2.03 -0.092,2.922c-0.44,1.193 -0.828,2.215 -1.147,3.026c-1.223,0.931 -1.937,1.383 -1.998,1.273c-0.062,-0.107 0.534,-0.75 1.56,-1.697c0.217,-0.794 0.486,-1.747 0.794,-2.796c-0.007,-0.774 -0.01,-1.602 -0.005,-2.475c-0.395,-0.83 -0.808,-1.715 -1.234,-2.635c-0.374,-0.556 -0.755,-1.129 -1.145,-1.713c-0.315,-0.486 -0.632,-0.976 -0.956,-1.475c0.009,-0.028 0.021,-0.055 0.03,-0.083c0.262,-0.773 0.618,-1.815 0.871,-2.552c4.266,5.853 7.354,10.397 7.09,10.659Z"/><path d="M27.776,66.055c0.037,0.237 -1.099,0.693 -2.883,1.184c-0.858,-0.183 -1.866,-0.429 -2.931,-0.719c-0.011,-0.007 -0.023,-0.013 -0.036,-0.023c-0.65,-0.417 -1.271,-0.833 -1.837,-1.223c-0.467,-0.791 -0.871,-1.512 -1.193,-2.123c-0.365,-1.401 -0.511,-2.288 -0.365,-2.359c0.144,-0.071 0.545,0.687 1.045,1.9c0.351,0.486 0.739,1.054 1.147,1.688c0.502,0.283 1.029,0.596 1.574,0.931c0.009,0.005 0.019,0.011 0.03,0.016c0.937,0.269 1.818,0.549 2.587,0.821c1.646,-0.273 2.826,-0.328 2.862,-0.093Z"/><path d="M18.016,58.315c-0.096,-0.05 0.242,-1.252 0.921,-3.319c0.384,-0.618 0.833,-1.328 1.342,-2.119c0.595,-0.39 1.245,-0.814 1.943,-1.268c0.552,-0.137 1.127,-0.276 1.727,-0.413c0.609,-2.617 1.291,-5.42 2.062,-8.54c-0.456,-0.091 -0.917,-0.183 -1.38,-0.276c0.048,-0.212 0.098,-0.424 0.148,-0.637c0.335,-1.437 0.661,-2.833 0.985,-4.194c0.5,0.018 0.992,0.036 1.478,0.055c1.935,-9.175 3.561,-16.048 3.83,-15.963c0.27,0.086 -1.152,7.119 -3.344,16.742c-0.483,-0.004 -0.976,-0.009 -1.475,-0.016c-0.29,1.018 -0.589,2.042 -0.897,3.101c-0.045,0.157 -0.091,0.314 -0.136,0.469c0.467,0.087 0.927,0.173 1.384,0.258c-0.767,3.588 -1.464,6.802 -2.11,9.678c-0.696,0.24 -1.357,0.463 -1.987,0.671c-0.629,0.354 -1.229,0.687 -1.788,0.995c-0.475,0.67 -0.913,1.277 -1.307,1.811c-0.789,1.913 -1.3,3.015 -1.396,2.965Z"/><path d="M23.305,56.796c0.112,0.096 -0.299,0.995 -1.026,2.247c0.19,0.437 0.386,0.885 0.607,1.382c0.18,0.386 0.36,0.789 0.543,1.216c0.452,-0.048 0.873,-0.094 1.353,-0.144c0.369,-0.016 0.743,-0.029 1.128,-0.039c0.265,-0.237 0.532,-0.474 0.808,-0.716c0.053,-0.047 0.107,-0.094 0.159,-0.139c0.01,-0.577 0.021,-1.138 0.037,-1.688c0.107,-0.329 0.207,-0.65 0.301,-0.97c-0.059,0.368 -0.123,0.724 -0.196,1.066c-0.139,0.424 -0.274,0.839 -0.401,1.227c-0.406,0.256 -0.788,0.49 -1.141,0.702c-0.443,0.007 -0.848,0.012 -1.206,0.014c-0.331,-0.306 -0.616,-0.572 -0.856,-0.803c-0.191,-1.09 -0.233,-1.681 -0.135,-1.713c0.096,-0.031 0.309,0.495 0.553,1.355c0.194,0.125 0.396,0.263 0.604,0.406c0.26,-0.057 0.547,-0.116 0.828,-0.175c0.235,-0.144 0.477,-0.285 0.725,-0.427c0.064,-0.369 0.124,-0.716 0.192,-1.109c0.356,-0.33 0.732,-0.668 1.129,-1.017c0.203,0.452 0.413,0.91 0.634,1.387c-0.066,0.743 -0.137,1.51 -0.212,2.297c-0.08,0.08 -0.162,0.16 -0.242,0.237c-0.417,0.411 -0.828,0.81 -1.229,1.2c-0.502,0.048 -0.988,0.094 -1.462,0.135c-0.614,-0.073 -1.237,-0.149 -1.787,-0.217c-0.321,-0.579 -0.62,-1.125 -0.889,-1.636c-0.162,-0.691 -0.326,-1.4 -0.45,-1.927c0.929,-1.489 1.52,-2.249 1.631,-2.151Z"/><path d="M68.826,58.208c-0.076,-0.103 0.385,-0.744 1.341,-1.804c0.344,0.045 0.764,0.105 1.209,0.166c0.461,0.299 0.974,0.639 1.535,1.017c0.299,0.582 0.618,1.21 0.956,1.88c-0.009,0.634 -0.018,1.298 -0.032,1.991c-0.331,0.491 -0.678,0.999 -1.031,1.52l-0.002,0.004l-0.012,0.009c-0.011,0.014 -0.023,0.028 -0.036,0.041c-0.014,0.014 -0.03,0.027 -0.043,0.039c-0.051,0.048 -0.103,0.094 -0.153,0.139c-0.16,0.139 -0.324,0.276 -0.498,0.408c-0.187,0.142 -0.394,0.284 -0.629,0.404c-0.139,0.107 -0.404,0.194 -0.778,0.137c-0.025,-0.007 -0.05,-0.013 -0.076,-0.023c-0.321,-0.1 -0.609,-0.239 -0.864,-0.367c-0.208,-0.116 -0.41,-0.23 -0.613,-0.345c-0.297,-0.403 -0.587,-0.8 -0.872,-1.188c0.036,-0.333 0.071,-0.664 0.105,-0.99c1.011,-0.091 1.946,-0.164 2.824,-0.216c0.094,-0.261 0.19,-0.516 0.288,-0.767c0.073,-0.322 0.134,-0.634 0.191,-0.947c-0.143,0.026 -0.285,0.041 -0.422,0.051c-0.406,-0.215 -0.766,-0.413 -1.074,-0.589c-0.842,-0.255 -1.33,-0.458 -1.314,-0.57c0.014,-0.114 0.531,-0.123 1.446,-0.037c0.326,0.11 0.705,0.244 1.127,0.402c0.217,0.091 0.442,0.196 0.682,0.31c0.043,0.499 0.094,1.042 0.15,1.636c-0.207,0.417 -0.431,0.857 -0.67,1.322c-0.842,-0.02 -1.741,-0.056 -2.719,-0.109c0.089,-0.014 0.182,-0.03 0.273,-0.048c0.192,0.237 0.384,0.479 0.578,0.726c0.139,0.059 0.28,0.118 0.421,0.178c0.259,0.121 0.5,0.241 0.726,0.307c0.016,0.007 0.034,0.012 0.05,0.016c-0.064,0.028 -0.016,-0.036 0.135,-0.073c0.155,-0.073 0.315,-0.184 0.481,-0.305c0.148,-0.11 0.297,-0.229 0.44,-0.352c0.046,-0.038 0.091,-0.077 0.137,-0.118c0.012,-0.011 0.025,-0.021 0.037,-0.032c-0.005,0.007 -0.012,0.014 -0.016,0.021l-0.005,0.004c0.262,-0.324 -0.264,0.326 -0.002,0.002c0.29,-0.346 0.579,-0.688 0.858,-1.02c0.006,-0.44 0.013,-0.868 0.022,-1.293c-0.23,-0.497 -0.447,-0.98 -0.654,-1.446c-0.432,-0.324 -0.835,-0.634 -1.205,-0.924c-0.287,-0.125 -0.556,-0.241 -0.816,-0.349c-0.824,0.824 -1.403,1.284 -1.476,1.182Z"/><g transform="matrix(2.54016,-6.21268e-19,-0.171831,2.54594,-63.5041,-260.698)"><g transform="matrix(0.711779,0,0.0337461,1,9.71208,0)"><text x="47.719px" y="119.76px" style="font-family:'Arial-BoldMT', 'Arial', sans-serif;font-weight:700;font-size:11.083px;fill:#00bf00;">e</text></g><g transform="matrix(0.711779,0,0.0337461,1,10.9899,0)"><text x="52.106px" y="119.365px" style="font-family:'Arial-BoldMT', 'Arial', sans-serif;font-weight:700;font-size:11.083px;">-hulaserwis.pl</text></g></g><rect x="82" y="48" width="70" height="1.29"/></svg>