<?xml version="1.0" encoding="UTF-8" standalone="no"?><!DOCTYPE svg PUBLIC "-//W3C//DTD SVG 1.1//EN" "http://www.w3.org/Graphics/SVG/1.1/DTD/svg11.dtd"><svg width="100%" height="100%" viewBox="0 0 78 81" version="1.1" xmlns="http://www.w3.org/2000/svg" xmlns:xlink="http://www.w3.org/1999/xlink" xml:space="preserve" xmlns:serif="http://www.serif.com/" style="fill-rule:evenodd;clip-rule:evenodd;stroke-linejoin:round;stroke-miterlimit:2;"><path d="M28.125,0.071c0.111,0.42 -4.23,2.455 -9.783,4.635c-0.123,0.17 -0.246,0.34 -0.372,0.51c0.003,0.064 0.006,0.126 0.009,0.187c0.015,0.343 0.03,0.677 0.042,1.011c-0.024,0.24 -0.045,0.469 -0.065,0.706c0.269,0.15 0.536,0.299 0.8,0.448c0.577,0.332 1.128,0.642 1.661,0.941c-0.352,1.597 -0.68,3.035 -0.973,4.266c1.849,0.624 3.059,1.253 2.994,1.488c-0.061,0.234 -1.377,-0.114 -3.609,-1.079c0.226,-1.177 0.501,-2.571 0.823,-4.133c-0.457,-0.021 -0.923,-0.029 -1.406,-0.038c-0.428,-0.358 -0.864,-0.727 -1.31,-1.108c-0.088,-0.463 -0.178,-0.934 -0.269,-1.411c0.026,-0.504 0.052,-1.017 0.082,-1.533c0.006,-0.093 0.009,-0.187 0.015,-0.284c0.284,-0.428 0.565,-0.853 0.843,-1.269c5.836,-2.29 10.404,-3.756 10.518,-3.337Z"/><path d="M23.174,12.772c-0.314,-0.089 0.008,-2.69 0.785,-6.472c0.791,-0.264 1.673,-0.554 2.581,-0.835c0.469,-0.147 0.931,-0.284 1.38,-0.416c0.773,-0.393 1.81,-0.902 2.461,-1.225c-0.12,-0.527 -0.208,-1.028 -0.27,-1.506c-0.591,-0.843 -0.923,-1.479 -0.811,-1.617c0.114,-0.138 0.65,0.264 1.517,1.155c0.126,0.65 0.252,1.458 0.381,2.428c-0.768,0.627 -1.793,1.46 -2.818,2.271c-0.408,0.085 -0.826,0.17 -1.257,0.251c-0.826,0.162 -1.65,0.306 -2.406,0.432c-0.579,3.21 -1.227,5.625 -1.543,5.534Z"/><path d="M18.147,15.672c-0.021,-0.173 0.579,-0.422 1.695,-0.712c0.423,0.105 0.924,0.246 1.494,0.416c0.358,0.346 0.745,0.733 1.164,1.157c0.076,0.668 0.158,1.403 0.24,2.177c-0.302,1.444 -0.659,3.05 -1.058,4.734c-1.502,6.343 -3,11.353 -3.366,11.227c-0.363,-0.126 0.557,-5.291 2.036,-11.488c0.399,-1.655 0.795,-3.225 1.172,-4.637c0.024,-0.565 0.038,-0.905 0.059,-1.447c-0.244,-0.231 -0.478,-0.463 -0.703,-0.695c-0.399,-0.19 -0.771,-0.375 -1.102,-0.547c-0.987,0.044 -1.614,-0.015 -1.631,-0.185Z"/><path d="M17.938,36.019c0.164,0.052 -0.158,2.033 -0.911,5.068c0.457,0.096 0.94,0.196 1.45,0.305c0.021,-0.106 -0.922,5.484 -0.99,5.897c-0.665,-0.003 -1.347,-0.014 -2.059,-0.032c1.494,2.265 3.844,5.812 5.625,8.517c2.164,3.295 4.122,6.295 5.914,9.111c6.824,0.097 11.619,0.378 11.617,0.715c0,0.336 -4.852,0.516 -12.106,0.462c-1.839,-2.949 -3.829,-6.21 -6.009,-9.811c-1.848,-3.056 -4.071,-6.756 -5.595,-9.284c0.682,-0.193 1.341,-0.372 1.986,-0.539c0.399,-1.702 0.738,-3.158 1.072,-4.612c-0.489,-0.129 -0.952,-0.249 -1.385,-0.363c0.691,-3.551 1.23,-5.484 1.391,-5.434Z"/><path d="M40.485,65.494c0.012,-0.521 5.754,-0.503 12.674,-0.114c0.58,0.032 1.151,0.064 1.711,0.1c0.334,-1.963 0.653,-3.741 0.975,-5.376c1.064,-1.313 1.995,-2.426 2.76,-3.299c1.453,-1.207 2.355,-1.84 2.452,-1.687c0.1,0.149 -0.621,1.057 -1.883,2.434c-0.636,0.917 -1.421,2.004 -2.327,3.214c-0.384,1.752 -0.831,3.653 -1.338,5.728c-0.583,-0.003 -1.181,-0.009 -1.788,-0.018c-7.386,-0.088 -13.248,-0.466 -13.236,-0.982Z"/><path d="M63.208,54.262c-0.059,-0.343 1.731,-1.087 4.382,-1.858c0.774,0.077 1.62,0.176 2.502,0.299c0.071,0.018 0.141,0.036 0.212,0.053c0.893,0.217 1.746,0.445 2.525,0.674c0.533,0.346 1.016,0.653 1.471,0.932c-0.996,2.346 -1.781,3.606 -2.013,3.43c-0.234,-0.181 0.352,-1.523 1.412,-3.126c-0.364,0.068 -0.736,0.158 -1.128,0.266c-0.776,-0.152 -1.617,-0.339 -2.493,-0.553c-0.067,-0.017 -0.138,-0.035 -0.205,-0.053c-0.786,-0.129 -1.536,-0.267 -2.232,-0.413c-2.511,0.521 -4.374,0.692 -4.433,0.349Z"/><path d="M65.385,59.137c0.126,0.322 -0.903,1.245 -2.382,2.206c-0.296,0.439 -0.621,0.897 -0.97,1.362c-0.191,0.255 -0.384,0.504 -0.572,0.738c-0.409,0.73 -0.811,1.38 -1.171,1.908c-0.334,0.504 -0.615,0.914 -0.806,1.175c-0.524,-0.027 -0.741,-0.156 -0.738,-0.305c0.003,-0.15 0.214,-0.273 0.445,-0.279c0.065,-0.378 0.117,-0.735 0.182,-1.215c0.264,-0.657 0.618,-1.43 1.031,-2.265c0.208,-0.281 0.428,-0.571 0.656,-0.867c0.41,-0.531 0.815,-1.029 1.196,-1.474c1.734,-0.896 3,-1.307 3.129,-0.984Z"/><path d="M66.691,59.017c0.003,-0.226 1.365,-0.398 3.566,-0.495c0.202,0 0.372,0.037 0.516,0.085c0.187,0.058 0.369,0.132 0.544,0.21c0.393,0.179 0.773,0.39 1.169,0.627c0.451,0.297 0.926,0.61 1.418,0.941c0.902,0.982 1.869,2.053 2.883,3.205c0.044,0.627 0.085,1.269 0.126,1.916c0.052,0.864 0.103,1.711 0.149,2.537c-0.208,1.228 -0.413,2.405 -0.609,3.507c-0.958,1.928 -1.819,3.612 -2.505,4.892c-1.861,0.967 -2.971,1.41 -3.047,1.219c-0.076,-0.19 0.894,-0.955 2.461,-1.972c0.513,-1.303 1.175,-2.909 1.922,-4.655c0.135,-0.987 0.284,-2.027 0.445,-3.103c-0.02,-0.685 -0.035,-1.385 -0.047,-2.103c-0.008,-0.536 -0.017,-1.069 -0.023,-1.59c-0.885,-0.924 -1.708,-1.803 -2.481,-2.649c-0.437,-0.322 -0.856,-0.633 -1.254,-0.935c-0.361,-0.254 -0.686,-0.477 -1.017,-0.667c-0.149,-0.088 -0.287,-0.162 -0.422,-0.22c-0.114,-0.047 -0.19,-0.083 -0.246,-0.088c-2.197,-0.199 -3.551,-0.436 -3.548,-0.662Z"/><path d="M69.465,78.382c-0.032,0.264 -1.549,0.223 -3.913,-0.062c-0.622,-0.222 -1.307,-0.477 -2.036,-0.762c-0.651,-0.509 -1.342,-1.065 -2.063,-1.655c-0.331,-0.559 -0.671,-1.142 -1.017,-1.737c-0.043,-0.079 -0.091,-0.161 -0.137,-0.24c-0.323,-0.803 -0.63,-1.588 -0.92,-2.344c-0.097,-0.085 -0.197,-0.176 -0.294,-0.264c-3.647,-0.152 -6.345,-0.498 -6.339,-0.867c0.006,-0.366 2.76,-0.582 6.706,-0.559c0.284,0.217 0.577,0.436 0.876,0.664c0.369,0.804 0.753,1.656 1.139,2.532c0.039,0.067 0.077,0.135 0.115,0.205c0.275,0.501 0.545,0.996 0.809,1.483c0.588,0.498 1.151,0.981 1.684,1.45c0.618,0.284 1.201,0.565 1.734,0.831c2.239,0.555 3.689,1.059 3.656,1.325Z"/><path d="M51.206,70.567c0.015,-0.454 -6.058,-1.033 -13.555,-1.291c-7.497,-0.258 -13.596,-0.098 -13.612,0.356c-0.015,0.455 6.059,1.033 13.555,1.291c7.497,0.258 13.596,0.099 13.612,-0.356Z"/><path d="M22.641,68.544c-0.346,0.343 -4.237,-5.42 -8.977,-12.961c-0.044,0.762 -0.079,1.456 -0.12,2.241c0,0.024 -0.003,0.05 -0.003,0.074c0.372,0.395 0.735,0.784 1.096,1.174c0.53,0.815 1.043,1.614 1.541,2.394c0.574,1.377 1.119,2.695 1.623,3.926c-0.035,1.351 -0.077,2.607 -0.118,3.753c-0.565,1.532 -1.063,2.845 -1.473,3.887c-1.57,1.196 -2.488,1.775 -2.566,1.635c-0.08,-0.138 0.685,-0.964 2.004,-2.179c0.278,-1.02 0.624,-2.244 1.019,-3.592c-0.009,-0.994 -0.012,-2.057 -0.006,-3.179c-0.507,-1.066 -1.037,-2.203 -1.585,-3.384c-0.481,-0.714 -0.97,-1.45 -1.471,-2.2c-0.404,-0.624 -0.811,-1.254 -1.227,-1.895c0.012,-0.036 0.026,-0.071 0.038,-0.106c0.337,-0.993 0.794,-2.332 1.119,-3.278c5.479,7.517 9.445,13.353 9.106,13.69Z"/><path d="M12.556,75.848c0.047,0.304 -1.411,0.891 -3.703,1.521c-1.101,-0.235 -2.396,-0.552 -3.765,-0.924c-0.014,-0.009 -0.029,-0.017 -0.046,-0.029c-0.835,-0.536 -1.632,-1.069 -2.359,-1.57c-0.6,-1.017 -1.119,-1.943 -1.532,-2.727c-0.469,-1.8 -0.656,-2.939 -0.469,-3.03c0.185,-0.091 0.701,0.882 1.342,2.44c0.451,0.624 0.949,1.354 1.474,2.168c0.645,0.363 1.321,0.765 2.022,1.196c0.011,0.006 0.023,0.014 0.037,0.02c1.205,0.346 2.336,0.706 3.323,1.055c2.115,-0.351 3.63,-0.422 3.676,-0.12Z"/><path d="M0.021,65.907c-0.123,-0.064 0.31,-1.608 1.183,-4.262c0.492,-0.794 1.069,-1.706 1.723,-2.722c0.764,-0.501 1.599,-1.046 2.496,-1.629c0.709,-0.175 1.447,-0.355 2.218,-0.53c0.782,-3.361 1.658,-6.961 2.648,-10.969c-0.586,-0.117 -1.178,-0.235 -1.772,-0.355c0.061,-0.272 0.126,-0.544 0.19,-0.817c0.431,-1.846 0.849,-3.638 1.265,-5.387c0.642,0.023 1.275,0.046 1.899,0.07c2.484,-11.783 4.573,-20.611 4.919,-20.502c0.346,0.111 -1.48,9.143 -4.295,21.503c-0.621,-0.005 -1.254,-0.011 -1.896,-0.02c-0.372,1.307 -0.756,2.622 -1.151,3.982c-0.058,0.202 -0.117,0.404 -0.175,0.603c0.6,0.112 1.191,0.223 1.778,0.331c-0.985,4.608 -1.881,8.736 -2.711,12.431c-0.893,0.307 -1.743,0.595 -2.551,0.861c-0.809,0.454 -1.579,0.882 -2.297,1.278c-0.609,0.861 -1.172,1.64 -1.679,2.326c-1.013,2.457 -1.669,3.873 -1.792,3.808Z"/><path d="M6.814,63.956c0.144,0.123 -0.384,1.278 -1.318,2.886c0.243,0.562 0.495,1.137 0.779,1.776c0.232,0.495 0.463,1.013 0.697,1.561c0.581,-0.061 1.122,-0.121 1.738,-0.185c0.474,-0.02 0.955,-0.038 1.45,-0.05c0.34,-0.304 0.682,-0.609 1.037,-0.919c0.068,-0.062 0.138,-0.121 0.205,-0.179c0.012,-0.741 0.027,-1.462 0.047,-2.168c0.137,-0.422 0.266,-0.835 0.386,-1.246c-0.075,0.472 -0.157,0.93 -0.251,1.369c-0.179,0.545 -0.352,1.078 -0.516,1.576c-0.521,0.328 -1.011,0.63 -1.465,0.902c-0.568,0.009 -1.089,0.015 -1.549,0.018c-0.425,-0.393 -0.791,-0.736 -1.099,-1.031c-0.246,-1.4 -0.299,-2.159 -0.173,-2.201c0.123,-0.04 0.396,0.636 0.709,1.741c0.249,0.161 0.51,0.337 0.777,0.521c0.333,-0.073 0.702,-0.149 1.063,-0.225c0.302,-0.185 0.612,-0.366 0.932,-0.548c0.081,-0.475 0.158,-0.92 0.246,-1.424c0.456,-0.425 0.94,-0.858 1.45,-1.307c0.26,0.58 0.53,1.17 0.814,1.782c-0.085,0.954 -0.176,1.939 -0.272,2.95c-0.103,0.102 -0.208,0.205 -0.311,0.305c-0.536,0.527 -1.063,1.04 -1.579,1.541c-0.645,0.061 -1.269,0.12 -1.878,0.172c-0.788,-0.093 -1.587,-0.19 -2.294,-0.278c-0.413,-0.744 -0.796,-1.444 -1.142,-2.101c-0.209,-0.888 -0.419,-1.798 -0.578,-2.475c1.193,-1.913 1.952,-2.889 2.095,-2.763Z"/><path d="M65.279,65.77c-0.097,-0.132 0.495,-0.956 1.723,-2.318c0.442,0.059 0.981,0.135 1.553,0.214c0.592,0.384 1.25,0.821 1.971,1.307c0.384,0.747 0.794,1.553 1.228,2.414c-0.012,0.814 -0.024,1.667 -0.042,2.557c-0.424,0.63 -0.87,1.284 -1.323,1.952l-0.003,0.005l-0.015,0.012c-0.015,0.018 -0.03,0.035 -0.047,0.053c-0.018,0.018 -0.038,0.035 -0.055,0.05c-0.065,0.061 -0.132,0.12 -0.197,0.178c-0.205,0.179 -0.416,0.355 -0.639,0.525c-0.24,0.182 -0.506,0.363 -0.808,0.519c-0.179,0.137 -0.519,0.249 -0.999,0.175c-0.033,-0.009 -0.065,-0.017 -0.097,-0.029c-0.413,-0.129 -0.782,-0.308 -1.11,-0.472c-0.267,-0.149 -0.527,-0.295 -0.788,-0.442c-0.381,-0.519 -0.753,-1.029 -1.119,-1.527c0.046,-0.427 0.09,-0.852 0.135,-1.271c1.297,-0.117 2.499,-0.211 3.626,-0.278c0.121,-0.335 0.244,-0.662 0.37,-0.985c0.093,-0.413 0.172,-0.814 0.246,-1.216c-0.185,0.033 -0.366,0.053 -0.543,0.065c-0.521,-0.275 -0.984,-0.53 -1.38,-0.756c-1.08,-0.328 -1.707,-0.589 -1.687,-0.732c0.018,-0.147 0.682,-0.158 1.858,-0.047c0.418,0.141 0.905,0.313 1.447,0.516c0.278,0.117 0.568,0.252 0.876,0.398c0.056,0.641 0.12,1.339 0.193,2.101c-0.266,0.536 -0.554,1.101 -0.861,1.698c-1.082,-0.026 -2.236,-0.072 -3.492,-0.14c0.114,-0.018 0.234,-0.038 0.351,-0.061c0.247,0.304 0.493,0.615 0.742,0.931c0.178,0.077 0.36,0.152 0.541,0.229c0.332,0.155 0.642,0.31 0.932,0.395c0.021,0.009 0.044,0.015 0.064,0.02c-0.082,0.036 -0.02,-0.046 0.173,-0.093c0.2,-0.094 0.405,-0.237 0.618,-0.393c0.191,-0.141 0.381,-0.293 0.566,-0.451c0.058,-0.05 0.117,-0.099 0.175,-0.152c0.015,-0.015 0.033,-0.027 0.048,-0.041c-0.006,0.008 -0.015,0.017 -0.021,0.026l-0.006,0.006c0.337,-0.416 -0.339,0.419 -0.003,0.003c0.372,-0.445 0.744,-0.885 1.102,-1.31c0.008,-0.565 0.017,-1.116 0.029,-1.661c-0.296,-0.638 -0.574,-1.259 -0.84,-1.857c-0.555,-0.416 -1.073,-0.815 -1.548,-1.187c-0.369,-0.161 -0.714,-0.31 -1.048,-0.448c-1.058,1.057 -1.802,1.649 -1.896,1.518Z"/><g transform="matrix(0.749999,-0.000909672,-0.0497094,0.750061,-13.5237,-10.3025)"><g transform="matrix(0.711779,0,0.0337461,1,9.71208,0)"><text x="47.719px" y="119.76px" style="font-family:'Arial-BoldMT', 'Arial', sans-serif;font-weight:700;font-size:11.083px;fill:#00bf00;">e</text></g><g transform="matrix(0.711779,0,0.0337461,1,10.995,0)"><text x="52.123px" y="119.365px" style="font-family:'Arial-BoldMT', 'Arial', sans-serif;font-weight:700;font-size:11.083px;">-</text></g><g transform="matrix(0.711779,0,0.0337461,1,11.7572,0)"><text x="54.768px" y="119.365px" style="font-family:'Arial-BoldMT', 'Arial', sans-serif;font-weight:700;font-size:11.083px;">hulaserwis.pl</text></g></g></svg>