<?xml version="1.0" encoding="UTF-8" standalone="no"?><!DOCTYPE svg PUBLIC "-//W3C//DTD SVG 1.1//EN" "http://www.w3.org/Graphics/SVG/1.1/DTD/svg11.dtd"><svg viewBox="0 0 128 118" version="1.1" xmlns="http://www.w3.org/2000/svg" xmlns:xlink="http://www.w3.org/1999/xlink" xml:space="preserve" xmlns:serif="http://www.serif.com/" style="fill-rule:evenodd;clip-rule:evenodd;stroke-linejoin:round;stroke-miterlimit:2;"><rect id="Artboard4" x="-11" y="0" width="139" height="127" style="fill:none;"/><g><path d="M47.531,7.832c0.149,0.559 -5.64,3.273 -13.043,6.18c-0.164,0.226 -0.328,0.453 -0.496,0.679c0.004,0.086 0.008,0.168 0.012,0.25c0.019,0.457 0.039,0.903 0.055,1.348c-0.032,0.32 -0.059,0.625 -0.086,0.941c0.359,0.2 0.715,0.399 1.066,0.598c0.77,0.442 1.504,0.856 2.215,1.254c-0.469,2.129 -0.906,4.047 -1.297,5.688c2.465,0.832 4.078,1.671 3.992,1.984c-0.082,0.312 -1.836,-0.152 -4.812,-1.438c0.301,-1.57 0.668,-3.429 1.097,-5.511c-0.609,-0.028 -1.23,-0.039 -1.875,-0.051c-0.57,-0.477 -1.152,-0.969 -1.746,-1.477c-0.117,-0.617 -0.238,-1.246 -0.359,-1.882c0.035,-0.672 0.07,-1.356 0.109,-2.043c0.008,-0.125 0.012,-0.25 0.02,-0.379c0.379,-0.571 0.754,-1.137 1.125,-1.692c7.781,-3.054 13.871,-5.008 14.023,-4.449Z"/><path d="M40.93,24.766c-0.418,-0.118 0.011,-3.586 1.047,-8.629c1.054,-0.352 2.23,-0.739 3.441,-1.114c0.625,-0.195 1.242,-0.378 1.84,-0.554c1.031,-0.524 2.414,-1.203 3.281,-1.633c-0.16,-0.703 -0.277,-1.371 -0.359,-2.008c-0.789,-1.125 -1.231,-1.973 -1.082,-2.156c0.152,-0.184 0.867,0.351 2.023,1.539c0.168,0.867 0.336,1.945 0.508,3.238c-1.024,0.836 -2.391,1.946 -3.758,3.028c-0.543,0.113 -1.101,0.226 -1.676,0.335c-1.101,0.215 -2.199,0.407 -3.207,0.575c-0.773,4.281 -1.636,7.5 -2.058,7.379Z"/><path d="M34.227,28.633c-0.028,-0.231 0.773,-0.563 2.261,-0.949c0.563,0.14 1.231,0.328 1.992,0.554c0.477,0.461 0.993,0.977 1.551,1.543c0.102,0.891 0.211,1.871 0.321,2.903c-0.403,1.925 -0.879,4.066 -1.411,6.312c-2.003,8.457 -4,15.137 -4.488,14.969c-0.484,-0.168 0.742,-7.055 2.715,-15.317c0.531,-2.207 1.059,-4.3 1.562,-6.183c0.032,-0.754 0.051,-1.207 0.079,-1.93c-0.325,-0.308 -0.637,-0.617 -0.938,-0.926c-0.531,-0.254 -1.027,-0.5 -1.469,-0.73c-1.316,0.059 -2.152,-0.02 -2.175,-0.246Z"/><path d="M33.949,55.762c0.219,0.07 -0.211,2.711 -1.215,6.758c0.61,0.128 1.254,0.261 1.934,0.406c0.027,-0.141 -1.23,7.312 -1.32,7.863c-0.887,-0.004 -1.797,-0.019 -2.746,-0.043c1.992,3.02 5.125,7.75 7.5,11.356c2.886,4.394 5.496,8.394 7.886,12.148c9.098,0.129 15.492,0.504 15.489,0.953c0,0.449 -6.469,0.688 -16.141,0.617c-2.453,-3.933 -5.106,-8.281 -8.012,-13.082c-2.465,-4.074 -5.429,-9.008 -7.461,-12.379c0.91,-0.257 1.789,-0.496 2.649,-0.718c0.531,-2.27 0.984,-4.211 1.429,-6.149c-0.652,-0.172 -1.269,-0.332 -1.847,-0.484c0.922,-4.735 1.64,-7.313 1.855,-7.246Z"/><path d="M64.012,95.062c0.015,-0.695 7.672,-0.671 16.898,-0.152c0.774,0.043 1.535,0.086 2.281,0.133c0.446,-2.617 0.871,-4.988 1.301,-7.168c1.418,-1.75 2.66,-3.234 3.68,-4.398c1.937,-1.61 3.14,-2.454 3.269,-2.25c0.133,0.199 -0.828,1.41 -2.511,3.246c-0.848,1.222 -1.895,2.672 -3.102,4.285c-0.512,2.336 -1.109,4.871 -1.785,7.637c-0.777,-0.004 -1.574,-0.012 -2.383,-0.024c-9.848,-0.117 -17.664,-0.621 -17.648,-1.309Z"/><path d="M94.309,80.086c-0.079,-0.457 2.308,-1.449 5.843,-2.477c1.032,0.102 2.16,0.235 3.336,0.399c0.094,0.023 0.188,0.047 0.282,0.07c1.191,0.289 2.328,0.594 3.367,0.899c0.711,0.461 1.355,0.871 1.961,1.242c-1.328,3.129 -2.375,4.808 -2.684,4.574c-0.312,-0.242 0.469,-2.031 1.883,-4.168c-0.485,0.09 -0.981,0.211 -1.504,0.355c-1.035,-0.203 -2.156,-0.453 -3.324,-0.738c-0.09,-0.023 -0.184,-0.047 -0.274,-0.07c-1.047,-0.172 -2.047,-0.356 -2.976,-0.551c-3.348,0.695 -5.832,0.922 -5.91,0.465Z"/><path d="M97.211,86.586c0.168,0.43 -1.203,1.66 -3.176,2.941c-0.394,0.586 -0.828,1.196 -1.293,1.817c-0.254,0.34 -0.512,0.672 -0.762,0.984c-0.546,0.973 -1.082,1.84 -1.562,2.543c-0.445,0.672 -0.82,1.219 -1.074,1.567c-0.699,-0.036 -0.989,-0.208 -0.985,-0.407c0.004,-0.199 0.286,-0.363 0.594,-0.371c0.086,-0.504 0.156,-0.98 0.242,-1.621c0.352,-0.875 0.825,-1.906 1.375,-3.019c0.278,-0.375 0.571,-0.762 0.875,-1.157c0.547,-0.707 1.086,-1.371 1.594,-1.965c2.313,-1.195 4,-1.742 4.172,-1.312Z"/><path d="M98.953,86.426c0.004,-0.301 1.82,-0.531 4.754,-0.66c0.27,0 0.496,0.05 0.688,0.113c0.25,0.078 0.492,0.176 0.726,0.281c0.524,0.238 1.031,0.52 1.559,0.836c0.601,0.395 1.234,0.813 1.89,1.254c1.203,1.309 2.492,2.738 3.844,4.273c0.059,0.836 0.113,1.692 0.168,2.555c0.07,1.152 0.137,2.281 0.199,3.383c-0.277,1.637 -0.551,3.207 -0.812,4.676c-1.278,2.57 -2.426,4.816 -3.34,6.523c-2.481,1.289 -3.961,1.879 -4.063,1.625c-0.101,-0.254 1.192,-1.273 3.282,-2.629c0.683,-1.738 1.566,-3.879 2.562,-6.207c0.18,-1.316 0.379,-2.703 0.594,-4.137c-0.027,-0.914 -0.047,-1.847 -0.063,-2.804c-0.011,-0.715 -0.023,-1.426 -0.031,-2.121c-1.18,-1.231 -2.277,-2.403 -3.308,-3.532c-0.582,-0.429 -1.141,-0.843 -1.672,-1.246c-0.481,-0.339 -0.914,-0.636 -1.356,-0.89c-0.199,-0.117 -0.383,-0.215 -0.562,-0.293c-0.153,-0.063 -0.254,-0.11 -0.328,-0.117c-2.93,-0.266 -4.735,-0.582 -4.731,-0.883Z"/><path d="M102.652,112.246c-0.043,0.352 -2.066,0.297 -5.218,-0.082c-0.829,-0.297 -1.743,-0.637 -2.715,-1.016c-0.867,-0.679 -1.789,-1.421 -2.75,-2.207c-0.442,-0.746 -0.895,-1.523 -1.356,-2.316c-0.058,-0.105 -0.121,-0.215 -0.183,-0.32c-0.43,-1.071 -0.84,-2.117 -1.227,-3.125c-0.129,-0.114 -0.262,-0.235 -0.391,-0.352c-4.863,-0.203 -8.46,-0.664 -8.453,-1.156c0.008,-0.488 3.68,-0.777 8.942,-0.746c0.379,0.289 0.769,0.582 1.168,0.886c0.492,1.071 1.004,2.208 1.519,3.376c0.051,0.089 0.102,0.179 0.153,0.273c0.367,0.668 0.726,1.328 1.078,1.977c0.785,0.664 1.535,1.308 2.246,1.933c0.824,0.379 1.601,0.754 2.312,1.109c2.985,0.739 4.918,1.411 4.875,1.766Z"/><path d="M78.306,101.826c0.021,-0.606 -8.078,-1.377 -18.073,-1.721c-9.996,-0.344 -18.128,-0.131 -18.149,0.475c-0.021,0.606 8.078,1.377 18.073,1.721c9.996,0.344 18.128,0.131 18.149,-0.475Z"/><path d="M40.219,99.129c-0.461,0.457 -5.649,-7.227 -11.969,-17.281c-0.059,1.015 -0.105,1.941 -0.16,2.988c0,0.031 -0.004,0.066 -0.004,0.098c0.496,0.527 0.98,1.046 1.461,1.566c0.707,1.086 1.391,2.152 2.055,3.191c0.765,1.836 1.492,3.594 2.164,5.235c-0.047,1.801 -0.102,3.476 -0.157,5.004c-0.754,2.043 -1.418,3.793 -1.964,5.183c-2.094,1.594 -3.317,2.367 -3.422,2.18c-0.106,-0.184 0.914,-1.285 2.672,-2.906c0.371,-1.36 0.832,-2.992 1.359,-4.789c-0.012,-1.325 -0.016,-2.743 -0.008,-4.239c-0.676,-1.421 -1.383,-2.937 -2.113,-4.511c-0.641,-0.953 -1.293,-1.934 -1.961,-2.934c-0.539,-0.832 -1.082,-1.672 -1.637,-2.527c0.016,-0.047 0.035,-0.094 0.051,-0.141c0.449,-1.324 1.059,-3.109 1.492,-4.371c7.305,10.023 12.594,17.805 12.141,18.254Z"/><path d="M26.773,108.867c0.063,0.406 -1.882,1.188 -4.937,2.028c-1.469,-0.313 -3.195,-0.735 -5.02,-1.231c-0.019,-0.012 -0.039,-0.023 -0.062,-0.039c-1.113,-0.715 -2.176,-1.426 -3.145,-2.094c-0.8,-1.355 -1.492,-2.59 -2.043,-3.636c-0.625,-2.399 -0.875,-3.918 -0.625,-4.04c0.247,-0.121 0.934,1.176 1.789,3.254c0.602,0.832 1.266,1.805 1.965,2.891c0.86,0.484 1.762,1.02 2.696,1.594c0.015,0.008 0.031,0.019 0.05,0.027c1.606,0.461 3.114,0.941 4.43,1.406c2.82,-0.468 4.84,-0.562 4.902,-0.16Z"/><path d="M10.059,95.613c-0.164,-0.086 0.414,-2.144 1.578,-5.683c0.656,-1.059 1.425,-2.274 2.297,-3.629c1.019,-0.668 2.132,-1.395 3.328,-2.172c0.945,-0.234 1.929,-0.473 2.957,-0.707c1.043,-4.481 2.211,-9.281 3.531,-14.625c-0.781,-0.156 -1.57,-0.313 -2.363,-0.473c0.082,-0.363 0.168,-0.726 0.254,-1.09c0.574,-2.461 1.132,-4.851 1.687,-7.183c0.856,0.031 1.699,0.062 2.531,0.094c3.313,-15.711 6.098,-27.481 6.559,-27.336c0.461,0.148 -1.973,12.191 -5.727,28.671c-0.828,-0.007 -1.671,-0.015 -2.527,-0.027c-0.496,1.742 -1.008,3.496 -1.535,5.309c-0.078,0.269 -0.156,0.539 -0.234,0.804c0.8,0.149 1.589,0.297 2.371,0.442c-1.313,6.144 -2.508,11.648 -3.614,16.574c-1.191,0.41 -2.324,0.793 -3.402,1.148c-1.078,0.606 -2.105,1.176 -3.062,1.704c-0.813,1.148 -1.563,2.187 -2.239,3.101c-1.351,3.277 -2.226,5.164 -2.39,5.078Z"/><path d="M19.117,93.012c0.192,0.164 -0.512,1.703 -1.758,3.847c0.325,0.75 0.661,1.516 1.039,2.368c0.309,0.66 0.618,1.351 0.93,2.082c0.774,-0.082 1.496,-0.161 2.317,-0.247c0.632,-0.027 1.273,-0.05 1.933,-0.066c0.453,-0.406 0.91,-0.812 1.383,-1.226c0.09,-0.082 0.184,-0.161 0.273,-0.239c0.016,-0.988 0.036,-1.949 0.063,-2.89c0.183,-0.563 0.355,-1.114 0.515,-1.661c-0.101,0.629 -0.21,1.239 -0.335,1.825c-0.239,0.726 -0.469,1.437 -0.688,2.101c-0.695,0.438 -1.348,0.84 -1.953,1.203c-0.758,0.012 -1.453,0.02 -2.066,0.024c-0.567,-0.524 -1.055,-0.981 -1.465,-1.375c-0.328,-1.867 -0.399,-2.879 -0.231,-2.934c0.164,-0.054 0.528,0.848 0.946,2.321c0.332,0.214 0.679,0.449 1.035,0.695c0.445,-0.098 0.937,-0.199 1.418,-0.301c0.402,-0.246 0.816,-0.488 1.242,-0.73c0.109,-0.633 0.211,-1.227 0.328,-1.899c0.609,-0.566 1.254,-1.144 1.934,-1.742c0.347,0.773 0.707,1.559 1.085,2.375c-0.113,1.273 -0.234,2.586 -0.363,3.934c-0.137,0.136 -0.277,0.273 -0.414,0.406c-0.715,0.703 -1.418,1.387 -2.105,2.055c-0.86,0.082 -1.692,0.16 -2.504,0.23c-1.051,-0.125 -2.117,-0.254 -3.059,-0.371c-0.551,-0.992 -1.062,-1.926 -1.523,-2.801c-0.278,-1.184 -0.559,-2.398 -0.77,-3.301c1.59,-2.55 2.602,-3.851 2.793,-3.683Z"/><path d="M97.07,95.43c-0.129,-0.176 0.66,-1.274 2.297,-3.09c0.59,0.078 1.309,0.18 2.071,0.285c0.789,0.512 1.667,1.094 2.628,1.742c0.512,0.996 1.059,2.071 1.637,3.219c-0.015,1.086 -0.031,2.223 -0.055,3.41c-0.566,0.84 -1.16,1.711 -1.765,2.602l-0.004,0.007l-0.02,0.016c-0.019,0.024 -0.039,0.047 -0.062,0.07c-0.024,0.024 -0.051,0.047 -0.074,0.067c-0.086,0.082 -0.176,0.16 -0.262,0.238c-0.273,0.238 -0.555,0.473 -0.852,0.699c-0.32,0.243 -0.675,0.485 -1.078,0.692c-0.238,0.183 -0.691,0.332 -1.332,0.234c-0.043,-0.012 -0.086,-0.023 -0.129,-0.039c-0.55,-0.172 -1.043,-0.41 -1.48,-0.629c-0.356,-0.199 -0.703,-0.394 -1.051,-0.59c-0.508,-0.691 -1.004,-1.371 -1.492,-2.035c0.062,-0.57 0.121,-1.137 0.18,-1.695c1.73,-0.156 3.332,-0.281 4.835,-0.371c0.161,-0.446 0.325,-0.883 0.493,-1.313c0.125,-0.551 0.23,-1.086 0.328,-1.621c-0.246,0.043 -0.488,0.07 -0.723,0.086c-0.695,-0.367 -1.312,-0.707 -1.84,-1.008c-1.441,-0.437 -2.277,-0.785 -2.25,-0.976c0.024,-0.196 0.91,-0.211 2.477,-0.063c0.558,0.188 1.207,0.418 1.93,0.688c0.371,0.156 0.757,0.336 1.168,0.531c0.074,0.855 0.16,1.785 0.257,2.801c-0.355,0.715 -0.738,1.468 -1.148,2.265c-1.442,-0.035 -2.981,-0.097 -4.656,-0.187c0.152,-0.024 0.312,-0.051 0.468,-0.082c0.329,0.406 0.657,0.82 0.989,1.242c0.238,0.102 0.48,0.203 0.722,0.305c0.442,0.207 0.856,0.414 1.243,0.527c0.027,0.012 0.058,0.02 0.085,0.027c-0.109,0.047 -0.027,-0.062 0.231,-0.125c0.266,-0.125 0.539,-0.316 0.824,-0.523c0.254,-0.188 0.508,-0.391 0.754,-0.602c0.078,-0.066 0.156,-0.132 0.234,-0.203c0.02,-0.019 0.043,-0.035 0.063,-0.054c-0.008,0.011 -0.02,0.023 -0.027,0.035l-0.008,0.008c0.449,-0.555 -0.453,0.558 -0.004,0.003c0.496,-0.593 0.992,-1.179 1.469,-1.746c0.011,-0.754 0.023,-1.488 0.039,-2.215c-0.395,-0.851 -0.766,-1.679 -1.121,-2.476c-0.739,-0.555 -1.43,-1.086 -2.063,-1.582c-0.492,-0.215 -0.953,-0.414 -1.398,-0.598c-1.41,1.41 -2.403,2.199 -2.528,2.024Z"/><g transform="matrix(0.999999,-0.0012129,-0.0662792,1.00008,-8,-6)"><g transform="matrix(0.711779,0,0.0337461,1,9.71208,0)"><text x="47.719px" y="119.76px" style="font-family:'Arial-BoldMT', 'Arial', sans-serif;font-weight:700;font-size:11.083px;fill:#00bf00;">e</text></g><g transform="matrix(0.711779,0,0.0337461,1,10.9899,0)"><text x="52.106px" y="119.365px" style="font-family:'Arial-BoldMT', 'Arial', sans-serif;font-weight:700;font-size:11.083px;">-hulaserwis.pl</text></g></g></g></svg>